# xmcd CD database file
#
# Track frame offsets:
#	150
#	39888
#	66134
#	94747
#	125154
#	142576
#	166196
#
# Disc length: 2510 seconds
#
# Revision: 0
# Processed by: cddbd v1.5.1PL2 Copyright (c) Steve Scherf et al.
# Submitted via: CDex 1.51
#
DISCID=5209cc07
DTITLE=THE MODERN JAZZ QUARTET - European Concert [CD2]
DYEAR=1960
DGENRE=Jazz
TTITLE0=Pyramid
TTITLE1=It Don't Mean A Thing (If It Ain't Got That Swing)
TTITLE2=Skating Central Park
TTITLE3=The Cylinder
TTITLE4='Round Midnight
TTITLE5=Bags' Groove
TTITLE6=I'll Remember April
EXTD=YEAR: 1960
EXTT0=
EXTT1=
EXTT2=
EXTT3=
EXTT4=
EXTT5=
EXTT6=
PLAYORDER=
